<svg width="24" height="40" fill="none" xmlns="http://www.w3.org/2000/svg"><path fill-rule="evenodd" clip-rule="evenodd" d="M8.51 2.61c-.775.347-1.588.711-2.367.921a14.464 14.464 0 0 1-2.985.484c-.233.012-.437.016-.608.016v.419h18.9v-.427c-.201 0-.447-.006-.726-.022a12.988 12.988 0 0 1-2.879-.473c-.739-.217-1.512-.562-2.254-.892-.264-.118-.524-.234-.777-.341C13.81 1.868 12.88 1.55 12 1.55c-.877 0-1.806.327-2.812.761-.222.095-.448.197-.679.3ZM2 5.55h.488l2.239 31.467a1.65 1.65 0 0 0 1.645 1.533h12.014a1.65 1.65 0 0 0 1.648-1.572l1.49-31.428H22a.55.55 0 0 0 .55-.55V3.462a.55.55 0 0 0-.585-.55h-.003l-.014.002a4.967 4.967 0 0 1-.297.008c-.207.003-.506 0-.866-.02a11.892 11.892 0 0 1-2.63-.43c-.663-.194-1.333-.493-2.05-.812h-.001a54.97 54.97 0 0 0-.86-.377C14.228.85 13.12.45 12 .45c-1.123 0-2.234.414-3.248.85-.257.112-.507.223-.75.332-.757.338-1.458.652-2.145.837-1.118.301-2.08.412-2.757.447a9.737 9.737 0 0 1-.988.003 2.92 2.92 0 0 1-.048-.004h-.01L2 3.461l.053-.548a.55.55 0 0 0-.603.548V5c0 .304.246.55.55.55Zm18.423 0H3.591l2.233 31.389a.55.55 0 0 0 .548.511h12.014a.55.55 0 0 0 .55-.524L20.422 5.55ZM16.9 18a4.9 4.9 0 1 1-9.8 0 4.9 4.9 0 0 1 9.8 0Zm1.1 0a6 6 0 1 1-12 0 6 6 0 0 1 12 0Z" fill="#000" fill-opacity=".58"/></svg>