<svg width="24" height="40" fill="none" xmlns="http://www.w3.org/2000/svg"><path d="M21 12H3l2.257 24.999A1.1 1.1 0 0 0 6.353 38h12.046a1.1 1.1 0 0 0 1.098-1.034L21 12ZM2 10.462V12h20v-1.538s-1.988.128-4-.462c-1.923-.563-4-2-6-2s-4.08 1.483-6 2c-2.323.626-4 .462-4 .462Z" fill="#fff"/><path fill-rule="evenodd" clip-rule="evenodd" d="M6.143 10.531c.78-.21 1.592-.574 2.366-.92.23-.103.457-.205.679-.3 1.006-.434 1.935-.761 2.812-.761.88 0 1.81.318 2.814.745.253.107.513.223.777.341.742.33 1.515.675 2.254.892 1.06.31 2.105.43 2.88.473.278.016.524.021.725.022v.427H2.55v-.419c.17 0 .375-.004.608-.016.741-.04 1.78-.16 2.985-.484ZM2.497 12.55H2a.55.55 0 0 1-.55-.55v-1.539a.55.55 0 0 1 .603-.547L2 10.461l.054-.547.01.001.048.004c.044.002.112.006.202.009.18.005.447.006.786-.012a13.366 13.366 0 0 0 2.757-.447C6.544 9.284 7.245 8.97 8 8.632c.244-.109.494-.22.751-.331C9.766 7.864 10.877 7.45 12 7.45c1.12 0 2.228.4 3.244.833.296.125.581.252.86.377.718.32 1.388.618 2.05.812.953.28 1.909.39 2.631.43a12.77 12.77 0 0 0 1.163.012l.014-.001h.003a.55.55 0 0 1 .585.548V12a.55.55 0 0 1-.55.55h-.482L20.046 37a1.65 1.65 0 0 1-1.647 1.55H6.353a1.65 1.65 0 0 1-1.643-1.502L2.497 12.55Zm1.105 0h16.814l-1.468 24.383a.55.55 0 0 1-.549.517H6.353a.55.55 0 0 1-.548-.5l-2.203-24.4Z" fill="#000"/><circle cx="12" cy="22.5" r="4.95" fill="#00754A" stroke="#000" stroke-width="1.1"/></svg>