<svg height="32" viewBox="0 0 32 32" width="32" xmlns="http://www.w3.org/2000/svg">
    <path d="m9.02040211 6c.27495185-3.35622386 3.29478189-6 6.97959789-6s6.704646 2.64377614 6.9795979 6h3.1745743c1.3372781 0 1.8222075.13923842 2.3110964.40069906.4888888.26146063.8725717.6451435 1.1340323 1.13403238.2614607.48888889.4006991.97381825.4006991 2.31109636v17.3083444c0 1.3372781-.1392384 1.8222075-.4006991 2.3110964-.2614606.4888888-.6451435.8725717-1.1340323 1.1340323-.4888889.2614607-.9738183.4006991-2.3110964.4006991h-20.3083444c-1.33727811 0-1.82220747-.1392384-2.31109636-.4006991-.48888888-.2614606-.87257175-.6451435-1.13403238-1.1340323-.26146064-.4888889-.40069906-.9738183-.40069906-2.3110964v-17.3083444c0-1.33727811.13923842-1.82220747.40069906-2.31109636.26146063-.48888888.6451435-.87257175 1.13403238-1.13403238.48888889-.26146064.97381825-.40069906 2.31109636-.40069906zm1.99066619 0h9.9778634c-.1713013-2.31577142-2.3105396-4.20000005-4.9889317-4.20000005s-4.8176304 1.88422863-4.9889317 4.20000005zm-5.0881544 2c-.66863905 0-.91110373.06961921-1.15554818.20034953-.24444444.13073032-.43628587.32257175-.56701619.56701619-.13073032.24444445-.20034953.48690913-.20034953 1.15554818v17.1541722c0 .6686391.06961921.9111037.20034953 1.1555482.13073032.2444444.32257175.4362859.56701619.5670162.24444445.1307303.48690913.2003495 1.15554818.2003495h20.1541722c.6686391 0 .9111037-.0696192 1.1555482-.2003495.2444444-.1307303.4362859-.3225718.5670162-.5670162.1307303-.2444445.2003495-.4869091.2003495-1.1555482v-17.1541722c0-.66863905-.0696192-.91110373-.2003495-1.15554818-.1307303-.24444444-.3225718-.43628587-.5670162-.56701619-.2444445-.13073032-.4869091-.20034953-1.1555482-.20034953z" fill="#fff" fill-opacity=".7" fill-rule="evenodd" />
</svg>
