<svg width="24" height="40" fill="none" xmlns="http://www.w3.org/2000/svg"><mask id="a" fill="#fff"><path fill-rule="evenodd" clip-rule="evenodd" d="M6.143 10.531c.78-.21 1.592-.574 2.366-.92.23-.103.457-.205.679-.3 1.006-.434 1.935-.761 2.812-.761.88 0 1.81.318 2.814.745.253.107.513.223.777.341.742.33 1.515.675 2.254.892 1.06.31 2.105.43 2.88.473.278.016.524.021.725.022v.427H2.55v-.419c.17 0 .375-.004.608-.016.741-.04 1.78-.16 2.985-.484ZM2.497 12.55H2a.55.55 0 0 1-.55-.55v-1.539a.55.55 0 0 1 .603-.547L2 10.461l.054-.547.01.001.048.004c.044.002.112.006.202.009.18.005.447.006.786-.012a13.366 13.366 0 0 0 2.757-.447C6.544 9.284 7.245 8.97 8 8.632c.244-.109.494-.22.751-.331C9.766 7.864 10.877 7.45 12 7.45c1.12 0 2.228.4 3.244.833.296.125.581.252.86.377.718.32 1.388.618 2.05.812.953.28 1.909.39 2.631.43a12.77 12.77 0 0 0 1.163.012l.014-.001h.003a.55.55 0 0 1 .585.548V12a.55.55 0 0 1-.55.55h-.482L20.046 37a1.65 1.65 0 0 1-1.647 1.55H6.353a1.65 1.65 0 0 1-1.643-1.502L2.497 12.55Zm1.105 0h16.814l-1.468 24.383a.55.55 0 0 1-.549.517H6.353a.55.55 0 0 1-.548-.5l-2.203-24.4Z"/></mask><path d="m8.51 9.61-.4-.916-.009.004.408.913Zm-2.367.921-.26-.966.26.966Zm2.366-.92.4.917.009-.004-.409-.913Zm.679-.3-.396-.918.396.918ZM12 8.55v-1 1Zm2.814.745.391-.92-.391.92Zm.777.341-.407.913.006.003.4-.916Zm0 0 .407-.913-.006-.003-.401.916Zm2.254.892.282-.96-.282.96Zm2.88.473-.056.998.055-.998Zm.725.022h1v-.995l-.996-.005-.004 1Zm0 .427v1h1v-1h-1Zm-18.9 0h-1v1h1v-1Zm0-.419v-1h-1v1h1Zm.608-.016.052.998-.052-.998Zm-.66 1.535.995-.09-.082-.91h-.914v1Zm-.867-2.496.671.74-.671-.74Zm.422-.14.098-.995h-.002l-.096.995Zm0 0-.098.995h.002l.096-.995Zm0 0 .097-.995-.097.995Zm0 0 .996.098.098-.997-.997-.096-.096.995Zm.001 0-.086.996h.001l.085-.996Zm.01.001-.085.996h.004l.081-.996Zm.048.004.065-.998-.065.998Zm.202.009.03-1-.03 1Zm.786-.012-.052-.998.052.998Zm2.757-.447-.26-.966.26.966ZM8 8.632l.408.913-.408-.913Zm.751-.331-.396-.918.396.918ZM12 7.45v1-1Zm3.244.833.392-.92-.392.92Zm.86.377-.407.913.004.002.403-.915Zm0 0 .407-.914-.004-.001-.403.915Zm2.05.812.282-.96-.281.96Zm2.631.43-.055 1 .055-1Zm.866.02-.013-1 .013 1Zm.237-.006-.04-.999.04 1Zm.06-.002.053.998h.002l-.055-.998Zm.014-.001.055.998h.004l-.06-.998Zm.003 0 .059.998h.01l-.07-.998Zm0 0-.055-.999h-.007l-.007.001.069.998Zm0 0 .054.998h.01l-.064-.998Zm.411.147-.684.73.684-.73Zm-.858 2.49v-1h-.942l-.056.94.998.06ZM20.046 37l-.998-.061.998.06Zm-15.336.048-.996.09.996-.09ZM20.416 12.55l.998.06.064-1.06h-1.062v1Zm-16.814 0v-1H2.508l.098 1.09.996-.09Zm15.346 24.383.998.06-.998-.06Zm-13.143.016-.996.09.996-.09ZM8.101 8.7c-.79.353-1.53.68-2.218.866l.52 1.932c.87-.235 1.757-.634 2.515-.973L8.1 8.698Zm.01-.005.797 1.834-.797-1.834Zm.68-.301c-.228.098-.461.203-.69.305l.817 1.826c.231-.104.452-.202.666-.295l-.792-1.836ZM12 7.55c-1.1 0-2.196.406-3.208.843l.792 1.836c1-.43 1.762-.679 2.416-.679v-2Zm3.205.825C14.191 7.943 13.098 7.55 12 7.55v2c.662 0 1.431.243 2.422.665l.783-1.84Zm.793.348c-.263-.117-.53-.237-.793-.348l-.783 1.84c.244.104.496.216.762.334l.814-1.826Zm-.006-.003-.802 1.832.802-1.832Zm2.134.848c-.662-.194-1.372-.509-2.128-.845l-.814 1.826c.728.325 1.564.7 2.38.938l.563-1.919Zm2.654.435c-.728-.04-1.691-.153-2.654-.435l-.562 1.92c1.157.338 2.284.466 3.105.511l.11-1.996Zm.674.02c-.186 0-.414-.006-.674-.02l-.111 1.996c.297.017.56.023.777.024l.008-2Zm.996 1.427v-.427h-2v.427h2Zm-19.9 1h18.9v-2H2.55v2Zm-1-1.419v.419h2v-.419h-2Zm1.555-1.015c-.214.011-.4.015-.555.015v2c.187 0 .408-.005.66-.018l-.105-1.997Zm2.778-.45a13.464 13.464 0 0 1-2.778.45l.105 1.997c.8-.041 1.91-.17 3.193-.516l-.52-1.932ZM2.497 11.55H2v2h.497v-2Zm-.497 0a.45.45 0 0 1 .45.45h-2c0 .856.694 1.55 1.55 1.55v-2Zm.45.45v-1.539h-2V12h2Zm0-1.539a.45.45 0 0 1-.148.334L.96 9.313a1.55 1.55 0 0 0-.509 1.148h2Zm-.148.334a.45.45 0 0 1-.345.114l.192-1.99a1.55 1.55 0 0 0-1.19.394l1.343 1.482Zm-.347.114.196-1.99-.196 1.99Zm.194-1.99-.192 1.99.192-1.99Zm.001 0-.194 1.99.194-1.99Zm.845 1.64a802.08 802.08 0 0 0 .053-.542l.002-.018a.946.946 0 0 0-.005-.212c-.002-.015-.023-.248-.192-.473a1 1 0 0 0-.443-.334c-.146-.056-.28-.063-.26-.061l-.194 1.99c.02.002-.114-.005-.259-.06a1 1 0 0 1-.641-1.007v-.01l.001-.004-.005.058-.047.478 1.99.195Zm-1.937-.742-.053.547 1.99.195.054-.547-1.99-.195Zm.899 1.092.193-1.99-.193 1.99Zm.01.001.174-1.992H2.14l-.173 1.992Zm.002 0 .01.001.17-1.992-.01-.001-.17 1.993Zm.014.002.064.004.13-1.995a1.86 1.86 0 0 1-.031-.003l-.163 1.994Zm.064.004c.056.004.136.008.238.011l.058-1.999a4.721 4.721 0 0 1-.166-.007l-.13 1.995Zm.238.011c.205.006.5.007.867-.012l-.104-1.997c-.31.016-.55.015-.705.01l-.058 2Zm.867-.012a14.37 14.37 0 0 0 2.965-.48l-.52-1.932c-1.04.28-1.93.382-2.55.415l.105 1.997Zm2.965-.48c.778-.21 1.554-.56 2.292-.89L7.593 7.72c-.774.346-1.4.624-1.996.784l.52 1.931Zm2.292-.89c.245-.11.49-.218.74-.326l-.793-1.836c-.264.113-.52.228-.763.336l.816 1.826Zm.74-.326C10.153 8.785 11.1 8.45 12 8.45v-2c-1.346 0-2.622.492-3.644.933l.792 1.836ZM12 8.45c.902 0 1.85.326 2.853.753l.783-1.84c-1.03-.439-2.298-.913-3.636-.913v2Zm2.853.753c.286.122.564.245.844.37l.814-1.827c-.278-.123-.571-.254-.875-.384l-.783 1.84Zm.848.372.806-1.83-.806 1.83Zm-.004-.002c.704.313 1.437.642 2.176.859l.563-1.92c-.587-.171-1.193-.44-1.925-.766l-.814 1.827Zm2.176.859a12.89 12.89 0 0 0 2.857.47l.11-1.998a10.897 10.897 0 0 1-2.404-.391l-.563 1.919Zm2.857.47c.386.02.707.023.934.02l-.026-2c-.188.003-.463 0-.797-.018l-.111 1.997Zm.934.02c.113-.001.203-.004.265-.007l-.08-1.998a7.752 7.752 0 0 1-.211.005l.026 2Zm.265-.007c.03 0 .055-.002.072-.003l-.106-1.997-.047.002.08 1.998Zm.075-.003h.013l-.11-1.998-.014.001.11 1.997Zm.017-.001h.003l-.119-1.997h-.003l.12 1.997Zm.012 0-.137-1.996.137 1.995Zm-.014 0-.109-1.997.11 1.997Zm.01 0a.45.45 0 0 1-.337-.121l1.368-1.46a1.55 1.55 0 0 0-1.16-.415l.129 1.996Zm-.337-.121a.45.45 0 0 1-.142-.329h2a1.55 1.55 0 0 0-.49-1.13l-1.368 1.459Zm-.142-.329V12h2v-1.539h-2Zm0 1.539a.45.45 0 0 1 .45-.45v2A1.55 1.55 0 0 0 23.55 12h-2Zm.45-.45h-.482v2H22v-2Zm-1.48.94-1.472 24.449 1.996.12 1.472-24.449-1.996-.12Zm-1.472 24.449a.65.65 0 0 1-.649.61v2a2.65 2.65 0 0 0 2.645-2.49l-1.996-.12Zm-.649.61H6.353v2h12.046v-2Zm-12.046 0a.65.65 0 0 1-.647-.59l-1.992.18a2.65 2.65 0 0 0 2.639 2.41v-2Zm-.647-.59L3.493 12.46l-1.992.18 2.213 24.498 1.992-.18Zm14.71-25.409H3.602v2h16.814v-2Zm-.47 25.443 1.468-24.383-1.996-.12-1.468 24.383 1.996.12ZM18.4 38.45a1.55 1.55 0 0 0 1.547-1.457l-1.996-.12a.45.45 0 0 1 .449-.423v2Zm-12.046 0h12.046v-2H6.353v2Zm-1.544-1.41a1.55 1.55 0 0 0 1.544 1.41v-2a.45.45 0 0 1 .448.41l-1.992.18Zm-2.203-24.4 2.203 24.4 1.992-.18-2.203-24.4-1.992.18Z" fill="#000" fill-opacity=".58" mask="url(#a)"/><circle cx="12" cy="22.5" r="4.95" stroke="#000" stroke-opacity=".58" stroke-width="1.1"/></svg>