<svg width="24" height="40" fill="none" xmlns="http://www.w3.org/2000/svg"><path fill-rule="evenodd" clip-rule="evenodd" d="M8.51 5.61c-.775.347-1.588.711-2.367.921a14.464 14.464 0 0 1-2.985.484c-.233.012-.437.016-.608.016v.419h18.9v-.427c-.201 0-.447-.006-.726-.022a12.988 12.988 0 0 1-2.879-.473c-.739-.217-1.512-.562-2.254-.892a50.858 50.858 0 0 0-.777-.341C13.81 4.868 12.88 4.55 12 4.55c-.877 0-1.806.327-2.812.761-.222.095-.448.197-.679.3ZM2 8.55h.491l2.23 28.479a1.65 1.65 0 0 0 1.644 1.52h12.026a1.65 1.65 0 0 0 1.647-1.563L21.522 8.55H22a.55.55 0 0 0 .55-.55V6.462a.55.55 0 0 0-.585-.55h-.003l-.014.002a4.967 4.967 0 0 1-.297.008c-.207.003-.506 0-.866-.02a11.892 11.892 0 0 1-2.63-.43c-.663-.194-1.333-.493-2.051-.812a54.97 54.97 0 0 0-.86-.377C14.228 3.85 13.12 3.45 12 3.45c-1.123 0-2.234.414-3.248.85-.257.112-.507.223-.75.332-.757.338-1.458.652-2.145.837-1.118.301-2.08.412-2.757.447a9.737 9.737 0 0 1-.988.003 2.92 2.92 0 0 1-.048-.004h-.01L2 6.461l.053-.548a.55.55 0 0 0-.603.548V8c0 .304.246.55.55.55Zm18.42 0H3.596l2.222 28.393a.55.55 0 0 0 .548.507h12.026a.55.55 0 0 0 .549-.521L20.42 8.55ZM16.4 20.5a4.4 4.4 0 1 1-8.8 0 4.4 4.4 0 0 1 8.8 0Zm1.1 0a5.5 5.5 0 1 1-11 0 5.5 5.5 0 0 1 11 0Z" fill="#000" fill-opacity=".58"/></svg>