<svg width="24" height="40" fill="none" xmlns="http://www.w3.org/2000/svg"><path d="M21 8H3l2.268 28.986A1.1 1.1 0 0 0 6.365 38h12.026a1.1 1.1 0 0 0 1.098-1.043L21 8ZM2 6.462V8h20V6.462S20.012 6.59 18 6c-1.923-.563-4-2-6-2S7.92 5.483 6 6c-2.323.626-4 .462-4 .462Z" fill="#fff"/><path fill-rule="evenodd" clip-rule="evenodd" d="M6.143 6.531c.78-.21 1.592-.574 2.366-.92.23-.103.457-.205.679-.3 1.006-.434 1.935-.761 2.812-.761.88 0 1.81.318 2.814.745.253.107.513.223.777.341.742.33 1.515.675 2.254.892 1.06.31 2.105.43 2.88.473.278.016.524.021.725.022v.427H2.55v-.419c.17 0 .375-.004.608-.016.741-.04 1.78-.16 2.985-.484ZM2.491 8.55H2A.55.55 0 0 1 1.45 8V6.462a.55.55 0 0 1 .603-.548L2 6.462l.054-.548.01.001.048.004c.044.002.112.006.202.009.18.005.447.006.786-.012a13.366 13.366 0 0 0 2.757-.447C6.544 5.284 7.245 4.97 8 4.632c.244-.109.494-.22.751-.331C9.766 3.864 10.877 3.45 12 3.45c1.12 0 2.228.4 3.244.833.296.125.581.252.86.377.718.32 1.388.618 2.05.812.953.28 1.909.39 2.631.43a12.77 12.77 0 0 0 1.163.012l.014-.001h.003a.55.55 0 0 1 .585.549V8a.55.55 0 0 1-.55.55h-.478l-1.484 28.436a1.65 1.65 0 0 1-1.647 1.564H6.365a1.65 1.65 0 0 1-1.645-1.521L2.491 8.55Zm1.104 0H20.42L18.94 36.929a.55.55 0 0 1-.55.521H6.366a.55.55 0 0 1-.548-.507L3.595 8.55Z" fill="#000"/><circle cx="12" cy="20.5" r="4.95" fill="#00754A" stroke="#000" stroke-width="1.1"/></svg>