<svg width="24" height="40" fill="none" xmlns="http://www.w3.org/2000/svg"><path fill-rule="evenodd" clip-rule="evenodd" d="M2 16v-1.538s1.677.164 4-.462c.733-.198 1.49-.536 2.256-.879C9.496 12.567 10.764 12 12 12c1.271 0 2.573.58 3.847 1.148.73.325 1.452.647 2.153.852 2.012.59 4 .462 4 .462V16h-1.068l-1.427 20.975A1.1 1.1 0 0 1 18.407 38H6.341a1.1 1.1 0 0 1-1.094-.988L3.102 16H2Z" fill="#fff"/><path fill-rule="evenodd" clip-rule="evenodd" d="M6.143 14.531c.78-.21 1.592-.574 2.366-.92.23-.103.457-.205.679-.3 1.006-.434 1.935-.761 2.812-.761.88 0 1.81.318 2.814.745.253.107.513.223.777.341.742.33 1.515.675 2.254.892 1.06.31 2.105.43 2.88.473.278.016.524.021.725.022v.427H2.55v-.419c.17 0 .375-.004.608-.016.741-.04 1.78-.16 2.985-.484ZM2.506 16.55H2a.55.55 0 0 1-.55-.55v-1.539a.55.55 0 0 1 .603-.547L2 14.461l.054-.547.01.001.048.004c.044.002.112.006.202.009.18.005.447.006.786-.012a13.362 13.362 0 0 0 2.757-.447c.687-.185 1.388-.498 2.144-.837.244-.109.494-.22.751-.331 1.014-.437 2.125-.851 3.248-.851 1.12 0 2.228.4 3.244.833.296.125.581.253.86.377.718.32 1.388.618 2.05.812.953.28 1.909.39 2.631.43a12.779 12.779 0 0 0 1.163.012l.014-.001h.003a.55.55 0 0 1 .585.548V16a.55.55 0 0 1-.55.55h-.488l-1.456 20.467a1.65 1.65 0 0 1-1.646 1.533H6.337a1.65 1.65 0 0 1-1.641-1.475L2.506 16.55Zm1.106 0h16.797l-1.45 20.389a.55.55 0 0 1-.549.511H6.337a.55.55 0 0 1-.547-.492L3.612 16.55Z" fill="#000"/><circle cx="12" cy="25.5" r="4.95" fill="#00754A" stroke="#000" stroke-width="1.1"/></svg>