<svg width="24" height="40" fill="none" xmlns="http://www.w3.org/2000/svg"><path d="M3 11v-.55h-.6l.052.598L3 11Zm18 0 .55.032.033-.582H21V11ZM5.26 36.995l-.547.048.547-.048Zm14.235-.031.549.032-.55-.032ZM3 11.55h18v-1.1H3v1.1Zm17.45-.582-1.504 25.964 1.098.063 1.505-25.963-1.098-.064ZM18.398 37.45H6.357v1.1h12.04v-1.1Zm-12.589-.502-2.26-25.996-1.096.096 2.26 25.995 1.096-.095Zm.548.502a.55.55 0 0 1-.548-.502l-1.095.095a1.65 1.65 0 0 0 1.643 1.507v-1.1Zm12.59-.518a.55.55 0 0 1-.55.518v1.1a1.65 1.65 0 0 0 1.648-1.554l-1.098-.064Z" fill="#6B6B6B"/><path d="M2 11h-.55c0 .304.246.55.55.55V11Zm0-1.538v-.55a.55.55 0 0 0-.55.55H2Zm20 0h.55a.55.55 0 0 0-.55-.55v.55ZM22 11v.55a.55.55 0 0 0 .55-.55H22ZM3 9.462v.55a.55.55 0 0 0 .55-.518L3 9.462Zm17.952 0-.549.029a.55.55 0 0 0 .55.52v-.55ZM2.55 11V9.462h-1.1V11h1.1Zm18.9-1.538V11h1.1V9.462h-1.1Zm.55.988H2v1.1h20v-1.1Zm-20-.438h1v-1.1H2v1.1Zm1-.55.55.032V9.48l.005-.062c.006-.055.014-.14.028-.248.029-.217.079-.53.164-.908.172-.758.484-1.762 1.045-2.761C5.9 3.528 7.981 1.55 12 1.55V.45c-4.48 0-6.899 2.252-8.167 4.512a11.49 11.49 0 0 0-1.158 3.056 11.155 11.155 0 0 0-.215 1.298 4.737 4.737 0 0 0-.008.103V9.428c-.001 0-.001.001.548.034Zm9-7.912c4.019 0 6.088 1.978 7.183 3.948.555.998.861 2.002 1.029 2.76a10.028 10.028 0 0 1 .185 1.156 3.573 3.573 0 0 1 .006.075v.003l.55-.03.549-.03v-.003l-.001-.007c0-.006 0-.013-.002-.023a5.436 5.436 0 0 0-.037-.37c-.03-.245-.084-.593-.176-1.008-.183-.829-.52-1.94-1.142-3.057C18.889 2.703 16.482.45 12 .45v1.1Zm8.952 8.462H22v-1.1h-1.048v1.1Z" fill="#6B6B6B"/><circle cx="12" cy="20.5" r="4.95" stroke="#6B6B6B" stroke-width="1.1"/></svg>