<svg width="24" height="40" fill="none" xmlns="http://www.w3.org/2000/svg"><path d="M2 18v-1.538h1S3.5 8 12 8s8.952 8.462 8.952 8.462H22V18h-1.048l-1.35 18.609A1.5 1.5 0 0 1 18.104 38H6.358a1.5 1.5 0 0 1-1.493-1.35L3 18H2Z" fill="#fff"/><path d="M2 18h-.55a.55.55 0 0 0 .55.55V18Zm0-1.538v-.55a.55.55 0 0 0-.55.55H2Zm20 0h.55a.55.55 0 0 0-.55-.55v.55ZM22 18v.55a.55.55 0 0 0 .55-.55H22ZM3 16.462v.55a.55.55 0 0 0 .55-.518L3 16.462Zm17.952 0-.549.029a.55.55 0 0 0 .55.52v-.55ZM3 18v-.55.55Zm17.952 0v-.55.55Zm-1.35 18.609.548.04-.549-.04Zm-14.737.04.547-.055-.547.055ZM2.55 18v-1.538h-1.1V18h1.1Zm18.9-1.538V18h1.1v-1.538h-1.1ZM2 17.012h1v-1.1H2v1.1Zm1-.55.55.032v-.015l.005-.062c.006-.055.014-.14.028-.248.029-.217.079-.53.164-.908.172-.758.484-1.762 1.045-2.761C5.9 10.528 7.981 8.55 12 8.55v-1.1c-4.48 0-6.899 2.252-8.167 4.512a11.49 11.49 0 0 0-1.158 3.056 11.155 11.155 0 0 0-.215 1.298 4.77 4.77 0 0 0-.008.103V16.428c-.001 0-.001.001.548.034Zm9-7.912c4.019 0 6.088 1.978 7.183 3.948a10.33 10.33 0 0 1 1.029 2.76 10.027 10.027 0 0 1 .185 1.156 3.584 3.584 0 0 1 .006.075v.003l.55-.03.549-.03v-.004l-.001-.006c0-.006 0-.013-.002-.023a5.37 5.37 0 0 0-.037-.37c-.03-.245-.084-.593-.176-1.008-.183-.829-.52-1.94-1.142-3.057C18.889 9.703 16.482 7.45 12 7.45v1.1Zm8.952 8.462H22v-1.1h-1.048v1.1ZM3 17.45H2v1.1h1v-1.1Zm19 0h-1.048v1.1H22v-1.1Zm-1.596.51L19.052 36.57l1.098.08 1.35-18.61-1.096-.079Zm-2.299 19.49H6.358v1.1h11.747v-1.1Zm2.847-20H3v1.1h17.952v-1.1ZM5.412 36.594 3.547 17.945l-1.094.11 1.865 18.649 1.094-.11Zm13.64-.025a.95.95 0 0 1-.947.881v1.1a2.05 2.05 0 0 0 2.045-1.901l-1.098-.08Zm-12.694.881a.95.95 0 0 1-.946-.856l-1.094.11a2.05 2.05 0 0 0 2.04 1.846v-1.1Z" fill="#000"/><circle cx="12" cy="27" r="4.45" fill="#00754A" stroke="#000" stroke-width="1.1"/></svg>